<svg width="236" height="236" viewBox="0 0 236 236" fill="none" xmlns="http://www.w3.org/2000/svg">
<g clip-path="url(#clip0_43722_341)">
<path d="M72.0001 47.0007C72.0375 48.0487 72.0749 49.0967 72.1134 50.1765C72.1791 51.5554 72.2455 52.9343 72.3126 54.3132C72.3352 55.0035 72.3577 55.6938 72.381 56.405C72.537 59.3412 72.658 61.5043 74.3517 63.9616C76.9234 65.5827 79.0446 65.3151 82.0001 65.0007C84.9335 62.0674 84.4613 58.8134 84.6251 54.8757C84.8107 50.9776 84.8107 50.9776 85.0001 47.0007C90.9401 47.0007 96.8801 47.0007 103 47.0007C103.66 49.3107 104.32 51.6207 105 54.0007C106.023 55.956 106.023 55.956 107.277 57.4929C107.709 58.0523 108.14 58.6118 108.584 59.1882C109.031 59.7451 109.477 60.302 109.938 60.8757C110.602 61.7458 110.602 61.7458 111.279 62.6335C113.441 65.3914 114.61 66.8706 118 68.0007C122.238 64.0276 125.707 59.6275 129.231 55.0124C129.815 54.3486 130.398 53.6847 131 53.0007C131.66 53.0007 132.32 53.0007 133 53.0007C133 52.3407 133 51.6807 133 51.0007C135.64 50.6707 138.28 50.3407 141 50.0007C138.03 49.6707 135.06 49.3407 132 49.0007C132 48.3407 132 47.6807 132 47.0007C138.6 47.0007 145.2 47.0007 152 47.0007C152.438 54.3132 152.438 54.3132 152.568 56.6035C152.758 59.6067 153.044 62.1327 154 65.0007C159.447 65.4497 159.447 65.4497 164.438 63.6882C166.92 59.4183 166.832 54.8629 167 50.0007C172.387 50.876 175.179 53.1801 179 57.0007C176.222 53.0076 174.505 50.7894 169.688 49.6257C168.471 49.4195 167.254 49.2132 166 49.0007C166 48.6707 166 48.3407 166 48.0007C169.402 47.5841 171.977 47.3562 174.953 49.2312C177.805 51.658 179.91 53.8656 182 57.0007C182.185 59.9008 182.252 62.7034 182.227 65.603C182.227 66.4813 182.228 67.3595 182.228 68.2644C182.227 71.1701 182.211 74.0755 182.195 76.9812C182.192 78.9947 182.189 81.0082 182.187 83.0218C182.179 88.3237 182.16 93.6254 182.137 98.9273C182.117 104.337 182.108 109.746 182.098 115.155C182.076 125.77 182.042 136.385 182 147.001C181.34 147.001 180.68 147.001 180 147.001C180 124.231 180 101.461 180 78.0007C139.08 78.0007 98.1601 78.0007 56.0001 78.0007C56.0001 99.4507 56.0001 120.901 56.0001 143.001C55.3401 143.001 54.6801 143.001 54.0001 143.001C53.9074 131.891 53.8363 120.782 53.7929 109.673C53.772 104.514 53.7437 99.3552 53.6984 94.1965C53.6549 89.2169 53.631 84.2375 53.6206 79.2576C53.6132 77.359 53.5988 75.4604 53.5772 73.5619C53.5481 70.8998 53.5442 68.2387 53.546 65.5764C53.5316 64.7938 53.5173 64.0112 53.5024 63.2049C53.5414 58.0177 54.6271 55.147 58.0001 51.0007C62.4441 46.9733 66.1774 46.961 72.0001 47.0007Z" fill="#C09A7E"/>
<path d="M166 47.9991C169.402 47.5825 171.977 47.3546 174.953 49.2296C177.805 51.6564 179.91 53.864 182 56.9991C182.185 59.8992 182.252 62.7018 182.227 65.6014C182.227 66.4796 182.228 67.3579 182.228 68.2628C182.227 71.1685 182.211 74.0739 182.195 76.9796C182.192 78.9931 182.189 81.0066 182.187 83.0202C182.179 88.322 182.159 93.6238 182.137 98.9257C182.117 104.335 182.108 109.744 182.098 115.153C182.076 125.769 182.042 136.384 182 146.999C181.34 146.999 180.68 146.999 180 146.999C180 124.229 180 101.459 180 77.9991C139.08 77.9991 98.16 77.9991 56 77.9991C56 99.4491 56 120.899 56 142.999C55.34 142.999 54.68 142.999 54 142.999C54 115.279 54 87.5591 54 58.9991C54.33 58.9991 54.66 58.9991 55 58.9991C55 64.6091 55 70.2191 55 75.9991C96.25 75.9991 137.5 75.9991 180 75.9991C180.962 58.1353 180.962 58.1353 174 50.9991C171.847 49.8984 171.847 49.8984 169.688 49.6241C168.471 49.4178 167.254 49.2116 166 48.9991C166 48.6691 166 48.3391 166 47.9991Z" fill="#866A54"/>
<path d="M125.062 40.5625C128 41 128 41 129.938 42C131.319 44.6004 131.376 46.718 130.91 49.6016C128.757 55.2744 123.983 61.2823 118.707 64.3203C118.144 64.5446 117.58 64.7689 117 65C111.417 59.8511 105.578 54.4559 104.562 46.625C105 44 105 44 107 42C110.799 41.6483 113.144 41.473 116.438 43.5C116.953 43.995 117.469 44.49 118 45C118.536 44.34 119.072 43.68 119.625 43C122 41 122 41 125.062 40.5625Z" fill="#A0785A"/>
<path d="M187 150C187.99 150 188.98 150 190 150C190 152.97 190 155.94 190 159C190.99 159.33 191.98 159.66 193 160C192.01 160 191.02 160 190 160C190 164.62 190 169.24 190 174C191.65 173.34 193.3 172.68 195 172C194.34 173.32 193.68 174.64 193 176C191.701 175.814 190.401 175.629 189.063 175.438C186.914 175.102 186.914 175.102 185 175C184.67 175.33 184.34 175.66 184 176C182.001 176.044 180 176.039 178 176C175.625 176 173.249 176.03 170.875 176.125C168 176 168 176 166 174C165.322 169.474 165.195 165.352 167.563 161.375C172.068 158.834 176.161 159.79 181 161C180.67 165.29 180.34 169.58 180 174C181.65 173.34 183.3 172.68 185 172C185.025 171.369 185.05 170.738 185.076 170.088C185.192 167.246 185.315 164.404 185.438 161.562C185.477 160.569 185.516 159.576 185.557 158.553C185.599 157.608 185.641 156.664 185.684 155.691C185.72 154.817 185.757 153.942 185.795 153.041C186 151 186 151 187 150Z" fill="#2E1C17"/>
<path d="M54 59C54.33 59 54.66 59 55 59C55 64.61 55 70.22 55 76C58.6526 75.9826 58.6526 75.9826 62.3789 75.9648C86.2699 75.8784 110.121 76.2558 134 77C134 77.33 134 77.66 134 78C108.26 78 82.52 78 56 78C56 99.45 56 120.9 56 143C55.34 143 54.68 143 54 143C54 115.28 54 87.56 54 59Z" fill="#58392D"/>
<path d="M44 142C46.5625 143.125 46.5625 143.125 48 145C48.25 148.687 48.25 148.687 48 152C46.35 152.33 44.7 152.66 43 153C43.33 152.34 43.66 151.68 44 151C44.04 149 44.0435 146.999 44 145C41.7549 143.877 40.4854 143.865 38 143.875C37.2987 143.872 36.5975 143.869 35.875 143.867C33.9085 143.886 33.9085 143.886 32 145C31.3299 147.785 31.3299 147.785 32 151C34.395 153.133 37.1812 154.497 40 156C41.4863 156.905 42.9659 157.821 44.4375 158.75C45.0962 159.157 45.7549 159.564 46.4336 159.984C48 161 48 161 49 162C49.6679 166.618 49.5883 170.005 47.1875 174.062C42.5063 176.907 38.341 176.856 33 176C29.8125 174.375 29.8125 174.375 28 172C27.4124 167.886 27.6696 166.495 30 163C32.625 162.812 32.625 162.812 35 163C35.33 163.66 35.66 164.32 36 165C34.02 165.99 34.02 165.99 32 167C32.3423 169.97 32.3423 169.97 33 173C36.0569 174.528 38.6298 174.232 42 174C44.4008 172.641 44.4008 172.641 46 171C46.0462 168.169 46.0462 168.169 45 165C40.6709 161.302 35.8591 158.735 30.8203 156.113C29 155 29 155 28 153C27.625 150.187 27.625 150.187 28 147C33.207 140.833 36.4329 140.521 44 142Z" fill="#2C1A14"/>
<path d="M61.9999 159C64.1679 160.144 64.1679 160.144 65.9999 162C66.3906 164.918 66.3906 164.918 66.2499 168.187C66.2139 169.274 66.1778 170.36 66.1406 171.48C66.071 172.727 66.071 172.727 65.9999 174C69.2601 173.306 70.7903 172.541 72.9999 170C71.1249 174.875 71.1249 174.875 69.9999 176C68.0004 176.044 65.9996 176.039 63.9999 176C61.4579 176 58.9154 176.037 56.3749 176.125C52.9999 176 52.9999 176 50.9999 174C50.1535 168.966 50.2282 165.135 53.1249 160.875C56.5026 158.672 58.0463 158.327 61.9999 159Z" fill="#43332D"/>
<path d="M152 146C155.746 146.856 157.634 148.393 159.812 151.438C162.733 156.486 162.781 161.318 162 167C161 170.188 161 170.188 159 172C156.203 172.408 153.854 172.234 151 172C150.67 171.01 150.34 170.02 150 169C150.33 168.34 150.66 167.68 151 167C151.072 165.49 151.084 163.977 151.062 162.465C151.055 161.573 151.047 160.682 151.039 159.764C151.026 158.831 151.013 157.898 151 156.938C150.975 155.093 150.954 153.247 150.938 151.402C150.926 150.582 150.914 149.762 150.902 148.918C151 147 151 147 152 146Z" fill="#E5E0D9"/>
<path d="M160.188 35.2498C162 35.9998 162 35.9998 163 36.9998C163.28 40.7841 163.232 44.5815 163.25 48.3748C163.271 49.4422 163.291 50.5095 163.313 51.6092C163.318 52.6327 163.323 53.6563 163.328 54.7108C163.342 56.123 163.342 56.123 163.357 57.5638C162.943 60.3944 162.207 61.2554 160 62.9998C155.125 61.2498 155.125 61.2498 154 58.9998C153.709 55.5272 153.722 52.0459 153.688 48.5623C153.659 47.5949 153.63 46.6275 153.6 45.6307C153.591 44.7019 153.583 43.7732 153.574 42.8163C153.56 41.9649 153.545 41.1136 153.53 40.2364C154 37.9998 154 37.9998 155.89 36.1832C158 34.9998 158 34.9998 160.188 35.2498Z" fill="#B69373"/>
<path d="M156.875 143C162.18 147.993 164.326 152.232 164.562 159.625C164.368 165.01 163.627 168.032 160 172C160 169 160 169 161 167C161.802 160.191 161.287 155.212 157.484 149.461C155.707 147.711 154.397 147.513 152 147C152.015 147.59 152.031 148.18 152.047 148.788C152.11 151.463 152.149 154.137 152.187 156.812C152.212 157.741 152.238 158.67 152.263 159.627C152.273 160.519 152.283 161.412 152.293 162.332C152.308 163.154 152.324 163.976 152.34 164.823C151.925 167.475 151.044 168.332 149 170C148.231 165.096 147.863 160.277 147.75 155.312C147.724 154.236 147.698 153.159 147.672 152.05C148.038 148.642 149.043 146.776 151 144C145.29 143.543 142.449 144.379 138 148C135.551 151.673 135.684 153.663 136 158C136.66 158.66 137.32 159.32 138 160C139.32 160 140.64 160 142 160C142.144 159.257 142.289 158.515 142.437 157.75C142.902 155.479 143.418 153.242 144 151C145.404 153.809 145.249 155.888 145 159C143.812 161.375 143.812 161.375 142 163C139.5 163.437 139.5 163.437 137 163C134.822 161.356 134.088 160.426 133.531 157.73C133.436 150.017 133.436 150.017 136.25 146.5C142.18 141.109 149.292 140.362 156.875 143Z" fill="#493A34"/>
<path d="M76.9999 35C79.9344 35.3668 80.8643 35.8644 82.9999 38C83.2587 40.2148 83.2587 40.2148 83.2655 42.9375C83.2681 43.9146 83.2707 44.8917 83.2734 45.8984C83.2656 46.922 83.2579 47.9455 83.2499 49C83.2576 50.0235 83.2654 51.047 83.2734 52.1016C83.2708 53.0787 83.2682 54.0558 83.2655 55.0625C83.2633 55.961 83.261 56.8595 83.2587 57.7852C82.9999 60 82.9999 60 80.9999 62C78.4374 62.1875 78.4374 62.1875 75.9999 62C73.4668 59.4669 74.8144 52.4701 74.8124 49.0625C74.8002 47.9391 74.7879 46.8157 74.7753 45.6582C74.7734 44.5863 74.7714 43.5145 74.7694 42.4102C74.7653 41.4215 74.7612 40.4329 74.757 39.4143C74.9999 37 74.9999 37 76.9999 35Z" fill="#7D4B2C"/>
<path d="M151 144.001C150.567 144.929 150.567 144.929 150.125 145.876C148.817 149.509 148.192 153.089 147.563 156.891C147.377 157.588 147.191 158.284 147 159.001C146.34 159.331 145.68 159.661 145 160.001C144.67 158.351 144.34 156.701 144 155.001C143.67 156.651 143.34 158.301 143 160.001C140.688 160.688 140.688 160.688 138 161.001C136.188 160.001 136.188 160.001 135 158.001C134.502 154.702 134.282 152.254 135.984 149.282C140.754 143.276 143.609 142.58 151 144.001Z" fill="#E3DED7"/>
<path d="M38 142.75C38.6806 142.745 39.3612 142.74 40.0625 142.734C42 143 42 143 45 145C45.25 148.062 45.25 148.062 45 151C44.67 151.33 44.34 151.66 44 152C44.66 152.66 45.32 153.32 46 154C45.01 154.495 45.01 154.495 44 155C43.67 155.99 43.34 156.98 43 158C41.3726 157.213 39.7481 156.42 38.125 155.625C36.7676 154.964 36.7676 154.964 35.3828 154.289C33 153 33 153 31 151C30.6875 148 30.6875 148 31 145C33.9974 143.002 34.6335 142.724 38 142.75Z" fill="#E3DED7"/>
<path d="M72 47.0007C72.0374 48.0487 72.0748 49.0967 72.1133 50.1765C72.1789 51.5554 72.2454 52.9343 72.3125 54.3132C72.3351 55.0035 72.3576 55.6938 72.3809 56.405C72.5787 60.4217 72.5787 60.4217 74.4062 63.9069C76.2005 65.1383 78.0151 66.1109 80 67.0007C80 67.3307 80 67.6607 80 68.0007C76.1748 68.8257 73.7944 69.3288 70.125 67.8132C67.8349 65.8599 67.3046 64.9449 67 62.0007C66.34 62.0007 65.68 62.0007 65 62.0007C65.875 57.1257 65.875 57.1257 67 56.0007C67.3676 53.6725 67.7024 51.3389 68 49.0007C62.5385 50.156 60.1292 51.3648 57 56.0007C56.34 56.6607 55.68 57.3207 55 58.0007C55.2219 54.1179 55.9625 53.0374 58.8125 50.2507C63.531 46.92 66.3214 46.9775 72 47.0007Z" fill="#77513B"/>
<path d="M160.164 124.805C161.382 124.839 161.382 124.839 162.625 124.875C163.851 124.902 163.851 124.902 165.102 124.93C166.041 124.964 166.041 124.964 167 125C168.607 128.215 168.057 131.436 168 135C164.605 137.089 161.952 137.344 158 137C156 135 156 135 155.734 133.125C155.74 132.424 155.745 131.723 155.75 131C155.745 130.299 155.74 129.598 155.734 128.875C156.148 125.954 157.278 125.065 160.164 124.805Z" fill="#AE8D74"/>
<path d="M138.504 124.902C140.018 124.92 140.018 124.92 141.562 124.938C142.574 124.947 143.586 124.956 144.629 124.965C145.802 124.982 145.802 124.982 147 125C147.027 126.646 147.046 128.292 147.062 129.938C147.074 130.854 147.085 131.771 147.097 132.715C147 135 147 135 146 136C144.314 136.072 142.625 136.084 140.937 136.062C140.018 136.053 139.099 136.044 138.152 136.035C137.442 136.024 136.732 136.012 136 136C134.373 132.747 134.885 129.608 135 126C136 125 136 125 138.504 124.902Z" fill="#A8846A"/>
<path d="M135 107C138.96 107 142.92 107 147 107C147.098 114.715 147.098 114.715 147 117C145.411 118.589 143.752 118.17 141.563 118.188C140.358 118.209 140.358 118.209 139.129 118.23C137 118 137 118 135 116C134.728 112.982 134.913 110.036 135 107Z" fill="#AC866D"/>
<path d="M138.25 87.8672C139.158 87.8698 140.065 87.8723 141 87.875C142.361 87.8711 142.361 87.8711 143.75 87.8672C146 88 146 88 147 89C147.098 90.4974 147.13 91.9994 147.125 93.5C147.128 94.3147 147.13 95.1294 147.133 95.9688C147 98 147 98 146 99C144.336 99.0982 142.667 99.1297 141 99.125C139.639 99.1289 139.639 99.1289 138.25 99.1328C136 99 136 99 135 98C134.902 96.5026 134.87 95.0006 134.875 93.5C134.872 92.6853 134.87 91.8706 134.867 91.0312C135.056 88.1421 135.356 88.038 138.25 87.8672Z" fill="#A8846C"/>
<path d="M117.504 124.902C119.018 124.92 119.018 124.92 120.562 124.938C121.574 124.947 122.586 124.956 123.629 124.965C124.803 124.982 124.803 124.982 126 125C126.027 126.646 126.046 128.292 126.062 129.938C126.074 130.854 126.086 131.771 126.098 132.715C126 135 126 135 125 136C123.004 136.168 123.004 136.168 120.562 136.188C119.358 136.209 119.358 136.209 118.129 136.23C116 136 116 136 114 134C113.672 131.285 113.869 128.748 114 126C115 125 115 125 117.504 124.902Z" fill="#A8846A"/>
<path d="M159.25 106.867C160.158 106.87 161.065 106.872 162 106.875C163.361 106.871 163.361 106.871 164.75 106.867C167 107 167 107 168 108C168.098 109.497 168.13 110.999 168.125 112.5C168.128 113.315 168.13 114.129 168.133 114.969C168 117 168 117 167 118C165.524 118.098 164.042 118.13 162.562 118.125C161.759 118.128 160.956 118.13 160.129 118.133C158 118 158 118 156 117C155.973 115.521 155.954 114.042 155.938 112.562C155.926 111.739 155.914 110.915 155.902 110.066C156.04 107.148 156.333 107.039 159.25 106.867Z" fill="#C29779"/>
<path d="M103 45.0007C105 48.0007 105 48.0007 106.262 50.2703C109.519 56.0793 112.696 59.9693 118 64.0007C121.999 61.0298 124.921 57.8712 128 54.0007C128.495 55.4857 128.495 55.4857 129 57.0007C127.234 59.6648 127.234 59.6648 124.75 62.6257C123.94 63.608 123.131 64.5903 122.297 65.6023C120 68.0007 120 68.0007 117 69.0007C113.412 65.5333 110.238 61.9668 107.188 58.0007C106.397 56.9901 105.607 55.9795 104.793 54.9382C103 52.0007 103 52.0007 103 47.0007C97.06 47.0007 91.12 47.0007 85 47.0007C85 46.6707 85 46.3407 85 46.0007C87.9579 45.7527 90.9146 45.5266 93.875 45.3132C94.7168 45.2404 95.5585 45.1676 96.4258 45.0925C97.2314 45.0377 98.0371 44.983 98.8672 44.9265C99.9826 44.8401 99.9826 44.8401 101.121 44.752C101.741 44.8341 102.361 44.9161 103 45.0007Z" fill="#E8E4DE"/>
<path d="M102 159C102.75 161.25 102.75 161.25 103 164C100.716 167.045 98.7779 168.46 94.9999 169C95.6599 170.65 96.3199 172.3 96.9999 174C98.9799 174 100.96 174 103 174C102.67 174.66 102.34 175.32 102 176C94.7163 176.358 94.7163 176.358 91.9999 175C90.3518 171.704 90.266 168.536 90.9999 165C93.7791 160.203 96.4656 157.34 102 159Z" fill="#42312A"/>
<path d="M187 150C187.99 150 188.98 150 190 150C190 152.97 190 155.94 190 159C190.99 159.33 191.98 159.66 193 160C192.01 160 191.02 160 190 160C190 164.62 190 169.24 190 174C191.65 173.34 193.3 172.68 195 172C194.34 173.32 193.68 174.64 193 176C190.982 175.707 188.964 175.414 186.945 175.121C184.919 174.832 184.919 174.832 183 176C182.34 175.34 181.68 174.68 181 174C182.32 173.34 183.64 172.68 185 172C185.038 171.054 185.038 171.054 185.076 170.088C185.192 167.246 185.314 164.404 185.438 161.562C185.496 160.073 185.496 160.073 185.557 158.553C185.599 157.608 185.64 156.664 185.684 155.691C185.739 154.38 185.739 154.38 185.795 153.041C186 151 186 151 187 150Z" fill="#564640"/>
<path d="M203 159C204.675 159.286 206.344 159.618 208 160C208.33 161.32 208.66 162.64 209 164C203.25 169 203.25 169 201 169C201.33 170.65 201.66 172.3 202 174C206.219 173.521 208.797 172.834 212 170C210.63 173.161 210.011 173.993 207 176C204.194 176.428 201.877 176.228 199 176C196.556 172.335 196.153 169.26 197 165C199.437 162.062 199.437 162.062 202 160C202.33 159.67 202.66 159.34 203 159Z" fill="#564A44"/>
<path d="M92 107C95.96 107 99.92 107 104 107C104 110.3 104 113.6 104 117C100.04 117 96.08 117 92 117C92 113.7 92 110.4 92 107Z" fill="#7C3320"/>
<path d="M114 107C117.63 107 121.26 107 125 107C125.098 114.715 125.098 114.715 125 117C124 118 124 118 121.969 118.133C121.154 118.13 120.339 118.128 119.5 118.125C118.685 118.128 117.871 118.13 117.031 118.133C115 118 115 118 114 117C113.858 113.664 113.958 110.34 114 107Z" fill="#B28A6C"/>
<path d="M158 88C160.383 88.0234 160.383 88.0234 163.125 88.375C164.035 88.4859 164.945 88.5967 165.883 88.7109C166.931 88.854 166.931 88.854 168 89C168.027 90.4791 168.046 91.9583 168.062 93.4375C168.074 94.2612 168.085 95.0849 168.097 95.9336C168 98 168 98 167 99C165.335 99.0982 163.667 99.1297 162 99.125C160.639 99.1289 160.639 99.1289 159.25 99.1328C157 99 157 99 156 98C155.727 92.2639 155.727 92.2639 156 90C156.66 89.34 157.32 88.68 158 88Z" fill="#AB8C76"/>
<path d="M91.9999 89C95.9599 89 99.9199 89 104 89C104.098 95.9336 104.098 95.9336 104 98C103 99 103 99 100.75 99.1328C99.8424 99.1302 98.9349 99.1277 97.9999 99.125C96.6386 99.1289 96.6386 99.1289 95.2499 99.1328C92.9999 99 92.9999 99 91.9999 98C91.8579 94.9967 91.9575 92.0078 91.9999 89Z" fill="#AC8064"/>
<path d="M73.2849 124.902C74.6597 124.92 74.6597 124.92 76.0623 124.938C76.9814 124.947 77.9005 124.956 78.8474 124.965C79.5577 124.976 80.268 124.988 80.9998 125C81.0266 126.646 81.0461 128.292 81.0623 129.938C81.0739 130.854 81.0855 131.771 81.0974 132.715C80.9998 135 80.9998 135 79.9998 136C78.4805 136.072 76.9581 136.084 75.4373 136.062C74.611 136.053 73.7847 136.044 72.9334 136.035C72.2953 136.024 71.6572 136.012 70.9998 136C69.3733 132.747 69.8852 129.608 69.9998 126C70.9998 125 70.9998 125 73.2849 124.902Z" fill="#A68066"/>
<path d="M69.9998 89C71.8122 88.9731 73.6247 88.9537 75.4373 88.9375C76.4466 88.9259 77.4559 88.9143 78.4959 88.9023C80.9998 89 80.9998 89 81.9998 90C82.1326 91.8125 82.1326 91.8125 82.1248 94C82.1273 94.7219 82.1299 95.4438 82.1326 96.1875C81.9998 98 81.9998 98 80.9998 99C79.3355 99.0982 77.667 99.1297 75.9998 99.125C74.6385 99.1289 74.6385 99.1289 73.2498 99.1328C70.9998 99 70.9998 99 69.9998 98C69.928 96.4807 69.9159 94.9583 69.9373 93.4375C69.9463 92.6112 69.9553 91.7849 69.9646 90.9336C69.9762 90.2955 69.9878 89.6574 69.9998 89Z" fill="#967057"/>
<path d="M70 107C73.63 107 77.26 107 81 107C81 110.3 81 113.6 81 117C77.37 117 73.74 117 70 117C70 113.7 70 110.4 70 107Z" fill="#A17559"/>
<path d="M114 89C117.63 89 121.26 89 125 89C125.098 95.9336 125.098 95.9336 125 98C124 99 124 99 121.969 99.1328C121.154 99.1302 120.339 99.1277 119.5 99.125C118.685 99.1276 117.87 99.1302 117.031 99.1328C115 99 115 99 114 98C113.858 94.9967 113.957 92.0078 114 89Z" fill="#AB856A"/>
<path d="M92 126C95.63 126 99.26 126 103 126C103.195 132.055 103.195 132.055 103 134C101 136 101 136 98.8359 136.195C96.5573 136.13 94.2786 136.065 92 136C92 132.7 92 129.4 92 126Z" fill="#B68E71"/>
<path d="M132 191C139 191 146 191 153 191C152.67 192.65 152.34 194.3 152 196C148.499 197.167 145.688 197.133 142 197.125C140.763 197.128 139.525 197.13 138.25 197.133C135 197 135 197 132 196C132 194.35 132 192.7 132 191Z" fill="#A99F98"/>
<path d="M55 161C58.2971 161.33 59.6227 161.623 62 164C62.2656 165.875 62.2656 165.875 62.25 168C62.2552 168.701 62.2603 169.402 62.2656 170.125C62 172 62 172 60 174C56.7029 173.67 55.3773 173.377 53 171C52.7344 169.125 52.7344 169.125 52.75 167C52.7448 166.299 52.7397 165.598 52.7344 164.875C53 163 53 163 55 161Z" fill="#E0DBD4"/>
<path d="M81.9999 159C85.2568 159.418 86.6343 159.634 88.9999 162C89.5624 164.188 89.5624 164.188 88.9999 167C86.8769 169.572 84.4774 171.775 81.9999 174C81.3399 174.66 80.6799 175.32 79.9999 176C78.7942 174.452 77.6109 172.886 76.4374 171.312C75.7761 170.442 75.1148 169.572 74.4335 168.676C72.9999 166 72.9999 166 73.16 163.23C73.9999 161 73.9999 161 75.9999 160C76.268 160.908 76.5361 161.815 76.8124 162.75C77.8956 165.715 78.9835 167.617 80.9999 170C81.9899 169.67 82.9799 169.34 83.9999 169C84.25 165.584 84.25 165.584 83.9999 162C83.0099 161.34 82.0199 160.68 80.9999 160C81.3299 159.67 81.6599 159.34 81.9999 159Z" fill="#2E1E18"/>
<path d="M171.438 161.812C174 162 174 162 176 164C176.266 165.875 176.266 165.875 176.25 168C176.255 168.701 176.26 169.402 176.266 170.125C176 172 176 172 174 174C171.5 173.812 171.5 173.812 169 173C167 170 167 170 167.313 166.375C168.191 162.062 168.191 162.062 171.438 161.812Z" fill="#E1DCD5"/>
<path d="M145 171.001C145.866 171.351 146.733 171.702 147.625 172.063C150.546 173.216 152.883 173.136 156 173.001C156.99 173.001 157.98 173.001 159 173.001C155.681 176.034 153.559 176.317 149.125 176.126C145.697 176.025 142.829 176.031 139.438 176.626C137 177.001 137 177.001 134 175.001C134.375 173.063 134.375 173.063 135 171.001C138.231 169.385 141.568 170.337 145 171.001Z" fill="#847973"/>
<path d="M102 51C105.648 54.5056 108.77 58.125 111.813 62.1875C112.998 63.7556 112.998 63.7556 114.207 65.3555C116 68 116 68 116 70C113.237 69.4773 110.674 68.8913 108 68C106.969 65.6802 105.971 63.3457 105 61C104.443 60.505 103.886 60.01 103.313 59.5C101.109 56.9812 101.82 54.1857 102 51Z" fill="#967359"/>
<path d="M132 47C138.6 47 145.2 47 152 47C152.438 54.3125 152.438 54.3125 152.568 56.6028C152.758 59.6059 153.044 62.132 154 65C154.99 65.33 155.98 65.66 157 66C156.34 66.33 155.68 66.66 155 67C152.395 66.043 152.395 66.043 150 64C149.613 61.1696 149.519 59.1033 149.688 56.3125C149.791 53.8994 149.894 51.4862 150 49C144.06 49 138.12 49 132 49C132 48.34 132 47.68 132 47Z" fill="#766253"/>
<path d="M73.0002 38C73.3302 38 73.6602 38 74.0002 38C74.0378 38.9918 74.0378 38.9918 74.0761 40.0037C74.1917 42.9818 74.3146 45.9596 74.4377 48.9375C74.477 49.9784 74.5163 51.0193 74.5568 52.0918C74.5987 53.0812 74.6406 54.0705 74.6838 55.0898C74.7204 56.0063 74.7571 56.9227 74.7949 57.8669C74.7702 59.9821 74.7702 59.9821 76.0002 61C79.065 61.1613 81.0557 60.9815 84.0002 60C83.1252 64.875 83.1252 64.875 82.0002 66C78.4798 66.3912 76.6796 66.5175 73.8117 64.333C71.5322 61.3973 71.5942 60.0268 71.8283 56.3594C71.8863 55.2895 71.9443 54.2195 72.0041 53.1172C72.0853 52.006 72.1665 50.8948 72.2502 49.75C72.3159 48.6234 72.3817 47.4967 72.4494 46.3359C72.6144 43.5556 72.7986 40.7779 73.0002 38Z" fill="#F0EDE7"/>
<path d="M110.375 41.6875C114.086 42.0074 115.372 42.4775 118 45C118.66 44.67 119.32 44.34 120 44C119.34 45.32 118.68 46.64 118 48C117.01 47.34 116.02 46.68 115 46C114.402 46.3094 113.804 46.6188 113.188 46.9375C111 48 111 48 108 49C108.66 51.31 109.32 53.62 110 56C105.077 51.2361 105.077 51.2361 104.812 47C105.087 42.6058 106.045 42.0884 110.375 41.6875Z" fill="#855E45"/>
<path d="M72 47.0007C72.049 48.0371 72.098 49.0735 72.1484 50.1413C72.2235 51.5111 72.299 52.8809 72.375 54.2507C72.4059 54.9326 72.4369 55.6145 72.4688 56.3171C72.6826 59.9881 73.0108 62.8632 75 66.0007C73.0625 65.1882 73.0625 65.1882 71 64.0007C69.9049 60.7155 69.9004 58.2641 69.9375 54.8132C69.9465 53.7265 69.9555 52.6398 69.9648 51.5202C69.9764 50.6888 69.988 49.8573 70 49.0007C63.6337 49.8514 63.6337 49.8514 58.5625 53.5007C58.0469 54.3257 57.5312 55.1507 57 56.0007C56.34 56.6607 55.68 57.3207 55 58.0007C55.2219 54.1179 55.9625 53.0374 58.8125 50.2507C63.531 46.92 66.3214 46.9775 72 47.0007Z" fill="#3F3327"/>
<path d="M159.25 106.867C160.158 106.87 161.065 106.872 162 106.875C163.361 106.871 163.361 106.871 164.75 106.867C167 107 167 107 168 108C168.098 109.497 168.13 110.999 168.125 112.5C168.128 113.315 168.13 114.129 168.133 114.969C168 117 168 117 167 118C165.524 118.098 164.042 118.13 162.562 118.125C161.759 118.128 160.956 118.13 160.129 118.133C158 118 158 118 156 117C155.973 115.521 155.954 114.042 155.938 112.562C155.926 111.739 155.914 110.915 155.902 110.066C156.04 107.148 156.333 107.039 159.25 106.867ZM158 108C158 110.64 158 113.28 158 116C160.64 116 163.28 116 166 116C166 113.36 166 110.72 166 108C163.36 108 160.72 108 158 108Z" fill="#9C816C"/>
<path d="M46.5625 143.125C48.7537 145.983 48.2625 148.521 48 152C46.35 152.33 44.7 152.66 43 153C43.33 152.34 43.66 151.68 44 151C44.04 149 44.0435 147 44 145C41.7549 143.878 40.4854 143.866 38 143.875C37.2987 143.873 36.5975 143.87 35.875 143.867C33.9085 143.886 33.9085 143.886 32 145C31.3444 147.527 31.3444 147.527 31 150C30.34 149.01 29.68 148.02 29 147C29.9582 144.605 30.5912 143.26 32.7969 141.856C37.3012 140.107 42.2433 141.229 46.5625 143.125Z" fill="#4C3E39"/>
<path d="M102 189C103.65 189 105.3 189 107 189C107.33 189.66 107.66 190.32 108 191C108.66 191 109.32 191 110 191C110.043 192.666 110.041 194.334 110 196C108.105 197.895 105.429 197.18 102.91 197.23C101 197 101 197 99 195C99.375 192.875 99.375 192.875 100 191C100.66 191 101.32 191 102 191C102 190.34 102 189.68 102 189Z" fill="#796D67"/>
<path d="M76.9998 35C79.8671 35.5734 80.8613 35.8615 82.9998 38C83.2269 40.2466 83.2269 40.2466 83.1951 43.0078C83.1887 43.9939 83.1822 44.9801 83.1756 45.9961C83.1588 47.0286 83.1421 48.0612 83.1248 49.125C83.1158 50.1653 83.1068 51.2055 83.0975 52.2773C83.0739 54.8518 83.0409 57.4258 82.9998 60C82.6698 60 82.3398 60 81.9998 60C81.9998 54.72 81.9998 49.44 81.9998 44C81.0098 44.33 80.0198 44.66 78.9998 45C75.9229 40.6923 75.9229 40.6923 76.3123 37.1875C76.5392 36.4656 76.7661 35.7437 76.9998 35Z" fill="#915F40"/>
<path d="M117 161C117.99 161 118.98 161 120 161C119.125 167.875 119.125 167.875 118 169C117.632 171.328 117.298 173.662 117 176C115.35 176.33 113.7 176.66 112 177C112 173.37 112 169.74 112 166C112.33 166 112.66 166 113 166C113 168.97 113 171.94 113 175C113.66 175 114.32 175 115 175C114.977 174.241 114.954 173.481 114.93 172.699C114.912 171.705 114.894 170.711 114.875 169.688C114.852 168.701 114.829 167.715 114.805 166.699C115 164 115 164 117 161Z" fill="#776960"/>
<path d="M164 38C164.33 38 164.66 38 165 38C165 40.64 165 43.28 165 46C166.98 46 168.96 46 171 46C171 46.33 171 46.66 171 47C169.02 47 167.04 47 165 47C165.035 48.0364 165.07 49.0728 165.105 50.1406C165.134 51.5104 165.161 52.8802 165.188 54.25C165.225 55.2729 165.225 55.2729 165.264 56.3164C165.309 59.4625 165.177 61.6672 163.688 64.4688C162 66 162 66 158.812 66.25C157.884 66.1675 156.956 66.085 156 66C155.67 65.34 155.34 64.68 155 64C156.134 63.7319 157.269 63.4638 158.438 63.1875C159.613 62.7956 160.789 62.4038 162 62C162.952 59.1449 163.19 57.0906 163.316 54.1133C163.358 53.1755 163.4 52.2377 163.443 51.2715C163.483 50.295 163.522 49.3186 163.562 48.3125C163.606 47.3244 163.649 46.3364 163.693 45.3184C163.799 42.879 163.901 40.4396 164 38Z" fill="#EBE8E2"/>
<path d="M149 50C149.33 50 149.66 50 150 50C150.33 54.62 150.66 59.24 151 64C152.98 64.66 154.96 65.32 157 66C157.33 66.66 157.66 67.32 158 68C150.25 68.125 150.25 68.125 148 67C145.794 63.6912 145.745 60.9091 146 57C146.33 56.34 146.66 55.68 147 55C147.66 55 148.32 55 149 55C149 53.35 149 51.7 149 50Z" fill="#AC8266"/>
<path d="M149 148C149.33 148 149.66 148 150 148C151.665 154.154 153.07 160.625 152 167C150.481 168.789 150.481 168.789 149 170C147.906 163.022 147.648 156.059 148 149C148.33 148.67 148.66 148.34 149 148Z" fill="#2A1812"/>
<path d="M103 45.0007C104.76 47.6411 106.461 50.2993 108.125 53.0007C108.664 53.867 109.203 54.7332 109.758 55.6257C111 58.0007 111 58.0007 111 61.0007C104.71 54.8807 104.71 54.8807 103 52.0007C103 50.3507 103 48.7007 103 47.0007C97.06 47.0007 91.12 47.0007 85 47.0007C85 46.6707 85 46.3407 85 46.0007C87.9579 45.7527 90.9146 45.5266 93.875 45.3132C94.7168 45.2404 95.5585 45.1676 96.4258 45.0925C97.2314 45.0377 98.0371 44.983 98.8672 44.9265C99.9826 44.8401 99.9826 44.8401 101.121 44.752C101.741 44.8341 102.361 44.9161 103 45.0007Z" fill="#ECE9E3"/>
<path d="M28.0001 147C28.6601 147 29.3201 147 30.0001 147C30.3919 147.743 30.7838 148.485 31.1876 149.25C33.6149 152.933 36.0975 154.012 40.0001 156C39.3401 157.32 38.6801 158.64 38.0001 160C36.5173 159.215 35.0389 158.422 33.5626 157.625C32.327 156.964 32.327 156.964 31.0665 156.289C29.0001 155 29.0001 155 28.0001 153C27.9601 151 27.9566 149 28.0001 147Z" fill="#301E18"/>
<path d="M91.9999 89C95.9599 89 99.9199 89 104 89C104.098 95.9336 104.098 95.9336 104 98C103 99 103 99 100.75 99.1328C99.8424 99.1302 98.9349 99.1277 97.9999 99.125C96.6386 99.1289 96.6386 99.1289 95.2499 99.1328C92.9999 99 92.9999 99 91.9999 98C91.8579 94.9967 91.9575 92.0078 91.9999 89ZM92.9999 90C92.9999 92.31 92.9999 94.62 92.9999 97C95.9699 97 98.9399 97 102 97C102 94.69 102 92.38 102 90C99.0299 90 96.0599 90 92.9999 90Z" fill="#9A7763"/>
<path d="M198 164C198.66 164 199.32 164 200 164C200.66 167.3 201.32 170.6 202 174C206.219 173.521 208.797 172.834 212 170C210.63 173.161 210.011 173.993 207 176C204.194 176.428 201.877 176.228 199 176C196.305 171.958 196.768 169.795 197 165C197.33 164.67 197.66 164.34 198 164Z" fill="#41302A"/>
<path d="M58.8125 158.75C62 159 62 159 64.4375 159.938C66.4065 162.537 66.0945 163.513 65.75 166.688C65.5202 168.128 65.2763 169.567 65 171C64.01 171 63.02 171 62 171C61.8762 169.886 61.7525 168.773 61.625 167.625C61.3534 163.969 61.3534 163.969 59 162C57.6825 161.303 56.3509 160.63 55 160C56 159 56 159 58.8125 158.75Z" fill="#29150F"/>
<path d="M54 181C56.0939 182.884 57.4401 184.674 59 187.062C61.0236 190.035 62.4371 191.683 66.043 192.414C66.7507 192.484 67.4584 192.553 68.1875 192.625C69.4456 192.749 70.7038 192.873 72 193C72 193.33 72 193.66 72 194C66.6579 194.58 62.3224 194.881 57.9375 191.438C54.7367 188.289 54.0902 185.511 54 181Z" fill="#4A2C24"/>
<path d="M134 151C134.33 151 134.66 151 135 151C135.124 152.114 135.247 153.227 135.375 154.375C135.646 158.031 135.646 158.031 138 160C139.32 160 140.64 160 142 160C142.216 158.886 142.216 158.886 142.437 157.75C142.902 155.48 143.418 153.242 144 151C145.404 153.809 145.249 155.888 145 159C143.812 161.375 143.812 161.375 142 163C139.5 163.438 139.5 163.438 137 163C135.355 161.766 135.355 161.766 134 160C133.707 157.738 133.707 157.738 133.812 155.312C133.839 154.504 133.866 153.696 133.894 152.863C133.929 152.248 133.964 151.634 134 151Z" fill="#453731"/>
<path d="M130 49C135.94 49 141.88 49 148 49C148 49.33 148 49.66 148 50C142.919 50.8468 138.152 51.0904 133 51C133 51.66 133 52.32 133 53C131 54.625 131 54.625 129 56C128.67 55.01 128.34 54.02 128 53C128.66 51.68 129.32 50.36 130 49Z" fill="#E5D1C2"/>
<path d="M180 161C181.644 164.289 180.959 167.85 180.84 171.469C180.731 174.172 180.731 174.172 183 176C174 176 174 176 171 174C176.75 172 176.75 172 179 172C178.67 168.7 178.34 165.4 178 162C178.66 161.67 179.32 161.34 180 161Z" fill="#4D3C35"/>
<path d="M96 189C96.66 189 97.32 189 98 189C98 191.31 98 193.62 98 196C96.35 195.67 94.7 195.34 93 195C93 194.34 93 193.68 93 193C92.34 193 91.68 193 91 193C90.67 193.66 90.34 194.32 90 195C90.66 195.33 91.32 195.66 92 196C90.68 195.67 89.36 195.34 88 195C88.33 193.68 88.66 192.36 89 191C91.31 191 93.62 191 96 191C96 190.34 96 189.68 96 189Z" fill="#55453D"/>
<path d="M143 172C144.355 172.108 144.355 172.108 145.738 172.219C146.918 172.312 148.097 172.404 149.312 172.5C150.484 172.593 151.656 172.686 152.863 172.781C154.905 172.924 156.953 173 159 173C156.453 175.445 155.143 175.987 151.562 176.312C148.252 176.022 145.966 175.438 143 174C143 173.34 143 172.68 143 172Z" fill="#31211C"/>
<path d="M122 188C124.97 188.495 124.97 188.495 128 189C128 193 128 193 126.625 194.75C125 196 125 196 123 196C122.67 193.36 122.34 190.72 122 188Z" fill="#756860"/>
<path d="M118 170C119.392 170.278 119.392 170.278 120.812 170.562C124.013 171.241 124.013 171.241 127 170C126.67 170.99 126.34 171.98 126 173C125.34 173 124.68 173 124 173C123.67 173.99 123.34 174.98 123 176C122.34 176 121.68 176 121 176C120.01 176.33 119.02 176.66 118 177C118.667 175 119.333 173 120 171C119.34 170.67 118.68 170.34 118 170Z" fill="#6A5B53"/>
<path d="M29 171C29.99 171 30.98 171 32 171C32.4125 171.495 32.825 171.99 33.25 172.5C35.0542 174.34 35.0542 174.34 38.4375 174.312C41.6242 174.033 43.3555 173.692 46 172C46.33 172.66 46.66 173.32 47 174C43.6778 176.215 42.4497 176.297 38.5625 176.312C37.615 176.329 36.6676 176.346 35.6914 176.363C32.6017 175.946 31.2204 175.157 29 173C29 172.34 29 171.68 29 171Z" fill="#493C36"/>
<path d="M148 162C148.33 162 148.66 162 149 162C149.33 164.64 149.66 167.28 150 170C152.31 170.66 154.62 171.32 157 172C156.67 172.66 156.34 173.32 156 174C150.516 174.366 150.516 174.366 148.281 172.781C146.565 170.395 146.857 169.173 147.312 166.312C147.432 165.504 147.552 164.696 147.676 163.863C147.783 163.248 147.89 162.634 148 162Z" fill="#BAB2AA"/>
<path d="M99 159C100.32 159.33 101.64 159.66 103 160C102.688 162.875 102.688 162.875 102 166C101.01 166.66 100.02 167.32 99 168C98.01 167.67 97.02 167.34 96 167C96.7425 166.412 96.7425 166.412 97.5 165.812C99.4559 163.449 99.2421 161.986 99 159Z" fill="#2E1E1A"/>
<path d="M111 60C113.667 61.3333 116.333 62.6667 119 64C118.67 64.99 118.34 65.98 118 67C117.01 67.33 116.02 67.66 115 68C113.35 65.69 111.7 63.38 110 61C110.33 60.67 110.66 60.34 111 60Z" fill="#E1DDD6"/>
<path d="M76 54C76.99 54.33 77.98 54.66 79 55C79 56.65 79 58.3 79 60C79.66 60 80.32 60 81 60C81 58.35 81 56.7 81 55C81.33 55 81.66 55 82 55C82 56.98 82 58.96 82 61C81.01 61.495 81.01 61.495 80 62C77.875 61.0625 77.875 61.0625 76 60C76 58.02 76 56.04 76 54Z" fill="#764F30"/>
<path d="M160.125 35.2503C162 36.0003 162 36.0003 163 38.0003C162.913 39.5464 162.76 41.0894 162.562 42.6253C162.461 43.4425 162.359 44.2598 162.254 45.1018C162.17 45.7283 162.086 46.3548 162 47.0003C161.67 47.0003 161.34 47.0003 161 47.0003C161 44.0303 161 41.0603 161 38.0003C159.68 38.3303 158.36 38.6603 157 39.0003C156.34 38.3403 155.68 37.6803 155 37.0003C158 35.0003 158 35.0003 160.125 35.2503Z" fill="#C8A98E"/>
<path d="M203 159C204.675 159.286 206.344 159.618 208 160C208.625 161.875 208.625 161.875 209 164C208.34 164.66 207.68 165.32 207 166C206.01 165.67 205.02 165.34 204 165C204.66 163.68 205.32 162.36 206 161C204.68 160.67 203.36 160.34 202 160C202.33 159.67 202.66 159.34 203 159Z" fill="#3E2E29"/>
<path d="M97 160C97.99 160 98.98 160 100 160C99.75 162.375 99.75 162.375 99 165C96.9375 166.312 96.9375 166.312 95 167C94.875 164.625 94.875 164.625 95 162C95.66 161.34 96.32 160.68 97 160Z" fill="#E5E1DB"/>
<path d="M166 165C166.33 165 166.66 165 167 165C167.248 166.072 167.495 167.145 167.75 168.25C168.999 171.996 170.025 173.521 173 176C170.625 176.125 170.625 176.125 168 176C166 174 166 174 165.805 171.836C165.828 171.024 165.851 170.212 165.875 169.375C165.893 168.558 165.911 167.74 165.93 166.898C165.953 166.272 165.976 165.645 166 165Z" fill="#1F0F0C"/>
<path d="M202 161C203.32 161 204.64 161 206 161C204.75 164.653 204.329 165.781 201 168C201.33 165.69 201.66 163.38 202 161Z" fill="#E5E1DC"/>
<path d="M109 61C112.243 63.3896 114.509 65.2048 116 69C113.085 67.926 111.222 67.2219 109 65C109 63.68 109 62.36 109 61Z" fill="#886146"/>
<path d="M71 42C71.66 42 72.32 42 73 42C73 46.62 73 51.24 73 56C72.67 56 72.34 56 72 56C72 53.03 72 50.06 72 47C71.34 47 70.68 47 70 47C70.33 45.35 70.66 43.7 71 42Z" fill="#C6C9BF"/>
<path d="M78 188C78.99 188 79.98 188 81 188C81.33 190.64 81.66 193.28 82 196C80.35 194.35 78.7 192.7 77 191C77.33 190.01 77.66 189.02 78 188Z" fill="#887F79"/>
<path d="M75 160C75.33 160 75.66 160 76 160C76.66 162.31 77.32 164.62 78 167C76.68 167.33 75.36 167.66 74 168C73.375 165.125 73.375 165.125 73 162C73.66 161.34 74.32 160.68 75 160Z" fill="#3C2B26"/>
<path d="M150 50C149.01 51.485 149.01 51.485 148 53C147.34 53 146.68 53 146 53C145.67 53.99 145.34 54.98 145 56C144.34 55.67 143.68 55.34 143 55C143.33 54.34 143.66 53.68 144 53C143.67 52.01 143.34 51.02 143 50C147.75 48.875 147.75 48.875 150 50Z" fill="#CFAF96"/>
<path d="M68 49C68.33 49 68.66 49 69 49C69.1668 53.9213 69.2483 57.5034 67 62C66.34 62 65.68 62 65 62C65.875 57.125 65.875 57.125 67 56C67.3676 53.6718 67.7024 51.3382 68 49Z" fill="#997258"/>
<path d="M144 191C145.32 191 146.64 191 148 191C148 192.65 148 194.3 148 196C146.68 196 145.36 196 144 196C144 194.35 144 192.7 144 191Z" fill="#635751"/>
<path d="M132 191C133.32 191 134.64 191 136 191C136 192.65 136 194.3 136 196C134.68 196 133.36 196 132 196C132 194.35 132 192.7 132 191Z" fill="#6A5D56"/>
<path d="M80 67.0009C80 67.3309 80 67.6609 80 68.0009C77.69 68.3309 75.38 68.6609 73 69.0009C72.34 68.0109 71.68 67.0209 71 66.0009C74.6194 64.6604 76.5737 65.3829 80 67.0009Z" fill="#976C54"/>
<path d="M72 60C74.9288 60.6276 77.361 61.5862 80 63C78.02 63.66 76.04 64.32 74 65C73.34 63.35 72.68 61.7 72 60Z" fill="#DCD8D1"/>
<path d="M117 169C117.99 169.33 118.98 169.66 120 170C120 171.65 120 173.3 120 175C118.02 175.99 118.02 175.99 116 177C116.33 174.36 116.66 171.72 117 169Z" fill="#C3BCB4"/>
<path d="M138 191C139.32 191 140.64 191 142 191C142 192.65 142 194.3 142 196C140.68 196 139.36 196 138 196C138 194.35 138 192.7 138 191Z" fill="#51433D"/>
<path d="M108 64C110.64 65.65 113.28 67.3 116 69C112 70 112 70 109.75 69.0625C109.173 68.7119 108.595 68.3613 108 68C108 66.68 108 65.36 108 64Z" fill="#A67B5C"/>
</g>
<defs>
<clipPath id="clip0_43722_341">
<rect width="236" height="236" fill="white"/>
</clipPath>
</defs>
</svg>
